<?xml version="1.0" encoding="UTF-8" standalone="no"?>
<!-- Generator: Adobe Illustrator 17.0.0, SVG Export Plug-In . SVG Version: 6.00 Build 0)  -->

<svg
   xmlns:dc="http://purl.org/dc/elements/1.1/"
   xmlns:cc="http://creativecommons.org/ns#"
   xmlns:rdf="http://www.w3.org/1999/02/22-rdf-syntax-ns#"
   xmlns:svg="http://www.w3.org/2000/svg"
   xmlns="http://www.w3.org/2000/svg"
   xmlns:xlink="http://www.w3.org/1999/xlink"
   xmlns:sodipodi="http://sodipodi.sourceforge.net/DTD/sodipodi-0.dtd"
   xmlns:inkscape="http://www.inkscape.org/namespaces/inkscape"
   version="1.1"
   id="Capa_1"
   x="0px"
   y="0px"
   width="1000.6592"
   height="406.63336"
   viewBox="0 0 1000.6592 406.63336"
   enable-background="new 0 0 1800 700"
   xml:space="preserve"
   sodipodi:docname="sori.svg"
   inkscape:version="0.92.1 r15371"><metadata
     id="metadata59"><rdf:RDF><cc:Work
         rdf:about=""><dc:format>image/svg+xml</dc:format><dc:type
           rdf:resource="http://purl.org/dc/dcmitype/StillImage" /><dc:title></dc:title></cc:Work></rdf:RDF></metadata><defs
     id="defs57" /><sodipodi:namedview
     pagecolor="#ffffff"
     bordercolor="#666666"
     borderopacity="1"
     objecttolerance="10"
     gridtolerance="10"
     guidetolerance="10"
     inkscape:pageopacity="0"
     inkscape:pageshadow="2"
     inkscape:window-width="1440"
     inkscape:window-height="839"
     id="namedview55"
     showgrid="false"
     inkscape:zoom="0.73055556"
     inkscape:cx="520.49103"
     inkscape:cy="188.61352"
     inkscape:window-x="-8"
     inkscape:window-y="-8"
     inkscape:window-maximized="1"
     inkscape:current-layer="Capa_1"
     fit-margin-top="0"
     fit-margin-left="0"
     fit-margin-right="0"
     fit-margin-bottom="0" /><g
     id="g49"
     transform="translate(-379.50897,-125.54759)"><defs
       id="defs38"><path
         id="XMLID_255_"
         d="M 2366.097,-196 H 1036.404 c -17.055,0 -31.01,-13.954 -31.01,-31.01 v -637.98 c 0,-17.055 13.954,-31.01 31.01,-31.01 h 1329.693 c 17.055,0 31.01,13.954 31.01,31.01 v 637.98 c 0,17.056 -13.955,31.01 -31.01,31.01 z"
         inkscape:connector-curvature="0" /></defs><clipPath
       id="XMLID_296_"><use
         xlink:href="#XMLID_255_"
         overflow="visible"
         id="use40"
         style="overflow:visible"
         x="0"
         y="0"
         width="100%"
         height="100%" /></clipPath><g
       clip-path="url(#XMLID_296_)"
       id="g47"><polygon
         points="1656.498,144.017 1656.498,131.028 1636.086,134.368 1636.457,143.646 "
         id="polygon43"
         style="fill:#d6d9da" /><polygon
         points="1656.869,164.8 1656.869,151.811 1637.199,153.295 1637.571,163.316 "
         id="polygon45"
         style="fill:#d6d9da" /></g></g><g
     id="XMLID_276_"
     transform="translate(-379.50897,-125.54759)"><path
       d="m 1768.99,10 c 11.585,0 21.01,9.425 21.01,21.01 v 637.98 c 0,11.585 -9.425,21.01 -21.01,21.01 H 31.01 C 19.425,690 10,680.575 10,668.99 V 31.01 C 10,19.425 19.425,10 31.01,10 h 1737.98 m 0,-10 H 31.01 C 13.954,0 0,13.955 0,31.01 V 668.99 C 0,686.046 13.954,700 31.01,700 h 1737.98 c 17.056,0 31.01,-13.954 31.01,-31.01 V 31.01 C 1800,13.955 1786.046,0 1768.99,0 Z"
       id="path51"
       inkscape:connector-curvature="0"
       style="fill:#ffffff" /></g><g
     id="g67"
     transform="translate(-379.50897,-125.54759)"><path
       inkscape:connector-curvature="0"
       id="path61"
       d="m 1022.5095,531.74278 c -91.95353,-1.42145 -187.18376,-4.25988 -268.97338,-8.01703 -24.46768,-1.12396 -51.26236,-2.31972 -59.54372,-2.65723 -8.28137,-0.33751 -23.06464,-1.25229 -32.85172,-2.03286 -9.78707,-0.78057 -27.95817,-1.75154 -40.38022,-2.15771 -12.42206,-0.40618 -27.51331,-1.32361 -33.53613,-2.03875 -6.02281,-0.71515 -15.57034,-1.67432 -21.21673,-2.13152 l -10.26616,-0.83126 -4.49058,-15.78838 c -8.52618,-29.9771 -33.09243,-92.34593 -62.88379,-159.64939 -11.84988,-26.77079 -14.82079,-32.41745 -16.64309,-31.63265 -12.70121,5.4699 -34.99994,6.51274 -46.42598,2.17118 -3.91002,-1.48569 -9.81282,-4.28572 -13.11734,-6.22231 -12.80537,-7.50444 -25.68942,-26.51416 -30.5285,-45.04314 -2.92687,-11.20706 -2.84468,-30.65642 0.17768,-42.04633 9.466,-35.67315 41.85737,-64.34379 77.08072,-68.22662 24.82898,-2.73702 45.73914,3.5544 64.13885,19.298 45.0078,38.51064 76.08713,123.34742 93.01793,253.90961 0.41492,3.19962 1.48661,5.81802 2.38155,5.81868 0.89493,6.6e-4 21.0302,0.91759 44.74503,2.03763 79.06962,3.73443 215.21639,8.77602 321.673,11.91173 78.15048,2.30193 292.82388,2.3317 325.09508,0.045 39.3478,-2.78807 59.2624,-5.76914 71.0427,-10.63463 2.4298,-1.00353 2.5396,-0.58463 1.6608,6.33735 -0.5175,4.07656 -3.3329,18.49938 -6.2564,32.05071 -2.9236,13.55133 -6.0099,30.18251 -6.8586,36.95817 -1.0627,8.48471 -2.2488,12.85594 -3.8105,14.04311 -3.5033,2.66308 -10.3886,4.30487 -30.4548,7.26183 -10.1635,1.49769 -19.2409,2.99202 -20.1719,3.32072 -0.9311,0.32871 -16.0223,0.96357 -33.5362,1.41081 -17.5138,0.44727 -36.771,1.30397 -42.7938,1.90382 -10.2836,1.02419 -162.1776,1.46763 -216.2738,0.63139 z M 460.20902,242.89404 c 11.24365,-8.38037 7.37207,-26.63485 -6.49229,-30.61109 -10.75684,-3.08502 -21.9438,5.0659 -22.09608,16.0994 -0.0876,6.3512 3.21578,13.32553 7.36301,15.54506 8.09023,4.32976 14.44494,4.02038 21.22536,-1.03337 z"
       style="fill:#000000;stroke-width:1.36882126" /><path
       inkscape:connector-curvature="0"
       id="path63"
       d="m 676.21891,354.31179 c -18.96431,-68.7705 -51.04356,-135.4818 -82.14024,-170.81704 -18.64054,-21.1813 -35.59438,-30.81294 -64.79279,-36.80943 l -11.39854,-2.34092 17.19467,-5.70749 c 28.91053,-9.59637 48.43064,-13.04693 74.04347,-13.08862 23.42456,-0.0381 32.67439,1.46575 48.4553,7.8781 12.57971,5.1116 22.58441,12.42946 40.50492,29.62697 44.27159,42.4855 87.38313,68.67525 136.21088,82.74649 30.1526,8.68941 37.23177,9.38614 98.55513,9.6998 54.11474,0.27678 77.35589,1.37731 114.98099,5.44469 91.3484,9.87499 167.1535,30.09155 211.315,56.35585 14.2969,8.50281 31.099,24.83202 35.643,34.63974 1.883,4.06423 3.295,7.49845 3.1377,7.63161 -0.1572,0.13318 -5.5216,-0.60668 -11.9208,-1.64407 -29.9547,-4.856 -115.4814,-13.14061 -174.5247,-16.90547 -77.8595,-4.96468 -192.16726,-6.35396 -247.07225,-3.00288 -73.70087,4.49826 -129.03547,12.8782 -167.8111,25.41352 -8.35274,2.70026 -15.48489,4.90957 -15.8492,4.90957 -0.36431,0 -2.40346,-6.31369 -4.53144,-14.03042 z"
       style="fill:#000000;stroke-width:1.36882126" /></g></svg>